<?xml version="1.0" encoding="UTF-8"?>
<svg id="a" xmlns="http://www.w3.org/2000/svg" viewBox="0 0 2000 2000">
<path d="M472.24,151.27c120.26,275.87,240.48,551.65,360.99,828.1-4.36,.35-7.96,.27-11.4,.97-16.03,3.28-24.28,13.65-24.29,30.38-.03,41.52-.04,83.05,0,124.57,.02,19.2,9.59,30.07,28.4,31.32,10.54,.7,21.17,.13,32.57,.13,.21,4.42,.46,7.4,.47,10.37,.03,21.88-.2,43.77,.16,65.65,.1,6.09-1.66,9.2-7.3,12.12-96.81,49.92-158.97,127.89-179.51,234.78-21.49,111.81,7.54,211.43,85.89,295.11,50,53.4,111.82,86.87,183.82,98.38,109.82,17.55,206.84-11.21,288.3-87.86,53.72-50.55,86.74-113,98.51-185.62,23.75-146.56-47.53-286.75-179.58-353.68-6.82-3.46-8.92-7.2-8.75-14.55,.51-21.31,.18-42.64,.18-63.97,0-3.02,0-6.03,0-10.77,11.72,0,22.62,.6,33.44-.14,17.52-1.19,27.37-12.26,27.39-29.75,.04-40.68-.21-81.37,.12-122.05,.14-16.98-5.5-29.48-23.66-34.98,119.69-274.57,239.21-548.74,358.76-822.99,342.35,214.43,535.08,636.09,438.4,1065.02-101.5,450.34-507.66,788.5-998.23,777.93-454.11-9.78-846.02-325.08-949.94-769.97C-78.83,776.69,137.09,355.77,472.24,151.27Z"/><path d="M661.88,58.24c229.65-78.8,457.54-77.65,686.1,3.58-114.22,262.02-227.91,522.82-342.27,785.15-114.84-263.44-229.03-525.38-343.83-788.73Z"/><path d="M981.41,979.87c131.9-302.74,263.26-604.27,394.99-906.62,13.86,5.95,26.87,11.53,40.69,17.46-3.76,8.76-7.29,17.11-10.91,25.42-94.34,216.35-188.7,432.68-283.03,649.03-24.34,55.82-48.65,111.64-72.92,167.49-5.89,13.56-11.77,27.14-17.25,40.88-1.98,4.96-4.75,6.61-10.03,6.47-13.44-.38-26.89-.13-41.53-.13Z"/><path d="M537.48,113.19c126.08,289.24,251.66,577.31,377.8,866.66-15.83,0-30.54,.27-45.21-.3-2.11-.08-4.82-3.91-5.98-6.56-25.26-57.57-50.32-115.22-75.44-172.85-95.45-218.97-190.86-437.96-286.54-656.82-3.08-7.04-2.13-10.18,4.49-13.42,10.28-5.03,20.16-10.85,30.9-16.71Z"/><path d="M1471.84,118.01c11.69,6.62,23.02,13.25,34.56,19.47,5.03,2.71,2.76,5.85,1.35,9.1-13.03,29.97-26.08,59.92-39.14,89.88-106.94,245.29-213.91,490.57-320.69,735.93-2.52,5.8-5.49,7.88-11.75,7.63-12.82-.51-25.68-.15-40.02-.15,125.45-287.79,250.42-574.47,375.7-861.85Z"/><path d="M592.38,86.53c14.12-5.92,27.19-11.39,40.89-17.13,8.02,18.45,15.68,36.1,23.36,53.72,109.13,250.23,218.24,500.47,327.56,750.62,3.53,8.07,4.14,14.85,.21,22.88-6.84,13.99-12.76,28.42-19.68,44.05-124.33-285.2-248.13-569.19-372.35-854.15Z"/><path d="M1013.2,1250.56c131.25-.7,253.58,96.26,288.11,226.14,35.2,132.38-24.97,273.46-145.08,339.88-53.01,29.31-109.74,43.28-170.01,40.14-143.75-7.48-261.59-108.17-289.38-246.37-25.88-128.7,40.53-263.85,158.79-324.27,45.92-23.46,94.41-35.65,157.55-35.52Zm-11.51,8.08c-13.12,.89-26.36,.97-39.34,2.8-72.06,10.16-134.25,40.48-183.44,94.44-67.98,74.58-93.43,162.45-71.38,261.01,34.78,155.49,186.39,252.32,341.89,227.7,71.88-11.38,133.04-44.2,180.61-99.62,66.43-77.38,88.48-166.65,62.74-265.43-34.03-130.57-154.08-220.27-291.06-220.91Z"/><path d="M1058.57,1225.24c-12.99-1.58-25.43-3.09-38.33-4.65v-52.53h38.33v57.19Z"/><path d="M979.07,1168.47v52.08c-12.64,1.54-25.05,3.05-38.06,4.63v-56.71h38.06Z"/><path d="M1005.8,1269.31c125.53-.76,239.78,85.31,275.63,205.3,32.42,108.49-6.4,229.97-97.29,300.73-43.92,34.19-93.47,54.85-148.56,61.11-135.43,15.38-266.21-62.47-310.39-193.34-49.52-146.71,28.57-303.84,176.37-356.71,32.38-11.58,65.82-17.52,104.24-17.08Zm-3.79,8.54c-37.78,0-72.32,6.57-107.21,20.37-123.88,49.03-196.34,177.59-170.81,306.88,30.11,152.48,177.56,245.08,324.25,220.77,62.33-10.33,116.43-37.86,159.57-84.27,66.92-72.01,91.75-156.93,67.86-252.69-31.38-125.79-143.9-211.07-273.66-211.07Z"/>
</svg>