<?xml version="1.0" encoding="UTF-8"?>
<svg id="a" xmlns="http://www.w3.org/2000/svg" viewBox="0 0 2000 2000">
    <path d="M1200.37,1981.88c-3.66-22.47-4.69-44.15-11.06-64.12-8.69-27.21-7.13-54.65-8.03-82.17-1.32-40.64-2.24-81.3-3.63-121.94-.13-3.91-1.32-8.82-3.88-11.44-11.38-11.61-12.83-26.5-14.07-41.16-4.55-53.87-9.14-107.75-12.53-161.71-2.51-40-3.41-80.12-4.58-120.2-.87-29.72-2.12-59.48-1.26-89.17,1.12-38.62,4.07-77.19,6.47-115.76,.34-5.5,2.03-10.91,3.09-16.37,.79,.58,1.58,1.16,2.37,1.74,2.13-1.85,5.71-3.4,6.15-5.59,2.13-10.67,4.27-21.46,4.83-32.29,1.19-22.96,.98-45.99,2.16-68.95,1.06-20.69-8.93-34.59-26.29-43.01-12.64-6.13-26.5-9.74-40.49-14.71,0-5.88-.32-13.1,.05-20.29,1.9-36.95,3.26-73.95,6.14-110.83,5.21-66.65,8.55-134.02,29.05-197.97,14.99-46.74,2.86-86.77-19.41-125.66-22.54-39.36-47.72-77.2-71.59-115.8-21.23-34.34-41.12-69.36-51.91-108.69-1.91-6.97-3.27-14.09-5.25-22.78v291.43c18.86,5.4,31.23,16.91,30.49,38.14-.69,19.6-12.61,30.19-31.05,35.03v355.24h-10.34v-9.96c0-112.05-.04-224.1,.1-336.14,0-6.14-.66-9.76-7.79-12.02-14.37-4.55-23.23-18.68-23.17-33.76,.07-15.46,9.38-29.15,24.07-34.08,4.59-1.54,6.92-2.86,6.91-8.35-.18-94.63-.13-189.26-1.31-284.16-.9,3.75-1.86,7.49-2.7,11.25-8.79,39.05-27.05,73.96-47.74,107.67-24.18,39.4-49.41,78.15-73.35,117.69-14.22,23.5-25.82,48.4-30.36,75.9-2.44,14.76-2.45,29.5,2.28,43.93,11.46,34.95,17.93,70.98,21.96,107.4,4.99,45.08,9.6,90.23,13.09,135.45,2.57,33.24,3.08,66.64,4.48,99.96,.03,.79-.37,1.61-.51,2.15-10.82,3.25-21.85,5.46-31.96,9.81-32.99,14.2-35.88,29.77-34.77,54.44,1.02,22.68,1.49,45.39,2.69,68.06,.44,8.33,2.03,16.63,3.56,24.86,.84,4.54,2.99,8.32,10.94,3.34,2.23,26.73,5.82,51.73,6.1,76.77,.68,60.3,.83,120.65-.73,180.93-1.48,57.15-4.67,114.29-8.57,171.34-2.27,33.19-7.38,66.18-11.34,99.24-.29,2.43-.84,5.57-2.47,6.98-12.4,10.7-11.47,25.29-11.9,39.43-.97,32.52-1.75,65.05-2.6,97.58-.57,21.87-1.12,43.74-1.7,65.61-.04,1.4,.13,2.96-.43,4.15-10.85,23.03-13.23,47.79-15.07,72.68-.03,.45-.66,.86-1.02,1.28C344.34,1877.31-10.84,1479.23,.25,978.06,12.34,432.23,461.94-9.52,1017.92,.16c520.65,9.06,936.18,412.25,978.08,911.68,23.6,281.32-57.02,531.37-241.42,745.37-147.46,171.13-334.21,277.73-554.2,324.67Z"/>
</svg>