<?xml version="1.0" encoding="UTF-8"?>
<svg id="a" xmlns="http://www.w3.org/2000/svg" viewBox="0 0 2000 2000"><path d="M999.91,2000C431.95,1999.28-11.48,1529.62,.32,978.06,11.66,447.86,447.9-4.81,1010.03,.04c536.88,4.63,990.03,438.41,989.88,1000.33-.15,561.23-454.43,999.51-1000,999.64ZM745.91,494.74c6.14,7.66,11.82,14.85,17.63,21.93,6.73,8.21,6.99,9.53-.78,16.18-13.16,11.27-26.5,22.34-40.13,33.03-5.25,4.11-6.82,7.2-1.84,12.71,8.99,9.96,17.39,20.45,26.11,30.65,8.51,9.97,8.61,9.98,.42,20.23-38.76,48.5-77.56,96.97-116.35,145.44-33.9,42.36-67.93,84.62-101.56,127.19-5.03,6.37-10.93,10.29-17.84,14.28-14.43,8.35-30.1,16.44-41.12,28.45-29.5,32.14-45.18,70.15-37.97,114.94,8.15,50.57,34.53,87.45,82.07,108.27,3.24,1.42,6.88,3.2,8.92,5.89,16.38,21.6,32.38,43.49,48.55,65.24,85.25,114.66,170.57,229.26,255.75,343.97,56.66,76.31,113.13,152.76,169.68,229.16,4.46,6.02,7.63,6.14,12.38-.02,39.77-51.6,79.59-103.16,119.24-154.85,64.32-83.87,128.51-167.84,192.77-251.76,26.69-34.86,53.42-69.68,80.06-104.57,3.31-4.34,5.41-8.7,12.66-8.74,66.3-.29,132.59-1.14,198.89-1.84,3.25-.03,6.49-.28,10.9-.48v-113.48H1001.67c.88,38.9,1.72,76.17,2.57,113.69,54.67,.87,108.09,1.71,162.95,2.58-53.58,69.62-105.95,137.67-158.71,206.24-4.73-6.06-8.59-10.82-12.27-15.72-46.35-61.71-92.66-123.46-139.02-185.17-51.21-68.18-102.51-136.29-153.51-204.63-2.14-2.86-3.17-8.03-2.25-11.46,5.98-22.38,6.8-45.11,1.41-67.26-3.24-13.31-1.09-23.11,8.01-32.3,.98-.99,1.8-2.14,2.67-3.23,54.79-68.97,109.57-137.95,164.4-206.88,1.44-1.81,3.44-3.18,5.14-4.72,59.36,69.14,118.07,137.53,177.06,206.24,9.46-7.85,17.79-14.86,26.22-21.74,10.57-8.64,10.24-8.22,18.63,2.22,24.14,30.04,48.7,59.74,73.28,89.82,1.87-1.4,3.46-2.48,4.94-3.7,36.94-30.36,73.86-60.75,110.81-91.1,8.64-7.1,17.51-13.92,26.05-21.15,5.27-4.46,8.35-8.78,1.89-15.77-10.81-11.68-20.47-24.42-30.6-36.73-15.62-18.98-31.23-37.97-47.82-58.15,10.3-9.33,20.22-18.31,30.35-27.49-3.31-4.25-5.58-7.42-8.11-10.38-21.26-24.88-42.55-49.73-63.85-74.57-89.19-104.05-178.42-208.06-267.5-312.21-3.78-4.42-6.11-3.04-9.51-.08-12.86,11.21-25.97,22.14-38.75,33.43-3.85,3.4-6.74,3.35-9.75-.61-4.73-6.22-9.23-12.64-14.24-18.63-4.13-4.94-3.32-7.71,2.19-10.99,13.63-8.12,13.98-10.77,4.04-22.87-28.4-34.58-56.88-69.09-85.35-103.62-4.73-5.73-9.52-11.41-14.34-17.18-6.86,4.86-12.61,8.93-19.54,13.85-3.49-20.31-6.71-38.99-10.31-59.93-52.61,43.51-102.98,85.16-154.86,128.07,20.94,7.1,39.04,13.24,59.29,20.12-9.35,7.73-16.9,13.99-24.39,20.19,.73,1.32,1.04,2.12,1.56,2.76,34.24,42.04,68.5,84.05,102.74,126.09,3.1,3.8,6.14,4.03,9.94,.78,3.97-3.39,8.35-6.31,12.77-9.6Z"/><path d="M577.79,1176.95c42.36-.19,71.55-22.11,98.66-48.85,25.48,33.77,50.42,66.74,75.28,99.78,74.46,98.96,148.85,197.98,223.36,296.9,7.73,10.27,15.94,20.2,24.26,29.99,3.19,3.76,7.33,6.71,11.59,10.53,2.5-3.22,4.49-5.78,6.46-8.35,66.53-86.72,133.04-173.46,199.69-260.09,1.6-2.07,4.8-4.11,7.27-4.13,42.49-.23,84.97-.14,127.46-.09,.75,0,1.5,.41,3.3,.93-116.51,151.97-232.67,303.49-350.33,456.96-142.52-191.44-284.03-381.51-427.02-573.59Z"/><path d="M674.66,954.11c-23.71-26.28-51.53-43.92-88.2-49.17,62.66-78.32,123.48-154.34,185.73-232.16,22.42,26.24,43.73,51.19,65.33,76.48-54.25,68.24-107.98,135.82-162.86,204.85Z"/><path d="M1262.59,913.82c-2.63,2.94-4.55,5.72-7.06,7.78-21.13,17.38-42.62,34.33-63.4,52.11-6.23,5.33-9.9,3.24-13.76-1.5-14.42-17.75-28.66-35.64-43.49-54.14,2.11-2.41,3.95-5.2,6.41-7.24,21.53-17.77,43.29-35.27,64.7-53.18,5.07-4.24,7.6-4.02,11.82,1.36,14.45,18.43,29.59,36.32,44.78,54.81Z"/><path d="M802.56,491.4c-7.35-9.19-14.07-17.59-21.53-26.92,13.64-10.89,27-21.56,40.92-32.67,7.07,8.56,13.57,16.43,21.21,25.67-13.47,11.25-26.61,22.23-40.6,33.92Z"/></svg>