<?xml version="1.0" encoding="UTF-8"?>
<svg id="a" xmlns="http://www.w3.org/2000/svg" viewBox="0 0 2000 2000">
    <path d="M1269.64,1199.84c-24.38,29.46-41.16,63.66-49.47,101.76-14,64.24-1.13,123.91,31.82,179.96,16.47,28,37.59,52.29,59.25,76.29,34.13,37.81,65.13,77.96,86.51,124.63,12.11,26.43,20.76,53.78,17.84,83.56-1.09,11.12-4.2,21.28-11.41,30.05-4.4,5.36-8.39,11.05-13.42,17.73,34.23-4.99,64.36-16.55,92.1-34.36,65.82-42.25,105.25-102.74,117.54-179.33,20.67-128.85-6.63-247.14-84.55-352.64-23.12-31.31-51.06-57.48-87.6-72.84-16.38-6.89-33.5-11.07-51.4-10.57-5.62,.16-7.55-1.84-8.75-7.19-23.89-106.85-46.68-213.97-72.37-320.39-28.32-117.32-58.32-234.25-89.42-350.87-42.85-160.63-91.13-319.66-145.58-476.78C1059.72,5.99,1058.94,3.05,1058.02,0c339.05,10.56,790.95,250.6,914.08,764.39,126.54,528.03-181.01,1005.35-611.64,1168.03-9.81-27.03-19.6-54.06-29.43-81.08-122.39-336.52-244.77-673.03-367.18-1009.54-36.29-99.77-72.64-199.53-109.07-299.25-1.4-3.83-3.48-7.68-6.13-10.75-96.92-112.1-193.95-224.1-290.93-336.15-1.05-1.22-1.67-2.81-2.5-4.23-.82,.39-1.64,.78-2.45,1.18-.48,23.96-1.1,47.92-1.43,71.88-.67,48.57-1.12,97.14-1.78,145.7-.46,33.96-1.03,67.92-1.68,101.88-.84,43.49-1.88,86.97-2.61,130.46-.07,4.04,1.06,8.29,2.45,12.14,98.48,271.16,197.03,542.31,295.61,813.43,63.51,174.66,127.08,349.29,190.61,523.94,.73,2.01,1.35,4.06,2.26,6.83-4.59,.45-8.45,1.28-12.26,1.13-39.48-1.47-79.06-1.76-118.4-4.95-102.5-8.31-200.9-33.86-295.54-73.99-127.7-54.15-239.37-131.57-334.88-232.14-115.28-121.38-195.35-262.84-240.04-424.26-13.08-47.22-22.2-95.21-28.3-143.85-7.32-58.39-9.27-116.98-6.12-175.58,7.06-131.12,38.21-256.42,94.7-375.11,70.66-148.47,171.79-272.29,302.78-371.44,102.73-77.76,216.6-133.12,340.89-167.05,6.21-1.69,7.68,1.11,9.38,5.82,49.12,136.08,103.86,269.91,161.26,402.67,65.42,151.32,134.23,301.09,206.39,449.3,50.38,103.47,102.01,206.32,153.58,310.44Z"/><path d="M1583.32,1491.72c-29.52-8.5-56.08-5.07-78.77,16.19-12.93,12.11-21.39,27.23-28.34,43.32-2.33,5.38-4.57,10.85-7.47,15.93-12.56,21.95-32.82,31.33-57.49,26.42-24.67-4.91-46.18-17.55-66.27-31.48-12.1-8.39-20.51-22.09-30.61-33.38-31.13-34.81-57.01-72.79-69.6-118.42-18.83-68.23-5.7-130.69,35.15-187.79,1.95-2.73,5.29-5.03,8.46-6.21,25.92-9.69,51.91-19.16,77.96-28.49,13.39-4.79,26.63-1.41,39.5,2.25,31.21,8.86,55.94,27.84,76.93,51.84,39.85,45.58,68.44,97.77,84.61,155.91,8.19,29.46,11.14,60.38,16.42,90.64,.13,.77-.22,1.62-.47,3.28Z"/><path d="M569.79,580.69c0-44.61-.11-89.23,.07-133.84,.06-14.29,.71-28.59,1.58-42.85,.14-2.24,2.49-5.51,4.56-6.28,30.31-11.3,60.83-22.05,91.09-33.49,5.82-2.2,8.14,.54,11.14,4.01,33.95,39.25,67.94,78.47,101.91,117.71,10.28,11.88,20.31,23.99,30.98,35.5,3.91,4.21,4.06,7.88,2.36,12.72-14.8,42.11-50.7,60.15-95.43,47.74-5.37-1.49-10.64-3.39-15.87-5.36-10.37-3.91-10.27-3.95-14.35,5.99-9.16,22.32-23.45,39.33-47.71,46-24.43,6.72-46.97-.59-69.15-9.7-1.71-.7-2.9-4.55-2.98-6.98-.32-10.38-.14-20.77-.14-31.16,.64,0,1.28,0,1.92,0Z"/>
</svg>