<?xml version="1.0" encoding="UTF-8"?>
<svg id="a" xmlns="http://www.w3.org/2000/svg" viewBox="0 0 2000 2000"><path d="M.17,999.99C-1.36,452.06,446.95-9.94,1019.35,.16c541.43,9.56,982.03,452.56,980.49,1004.07-1.53,545.02-447.44,1006.47-1020.9,995.58C437.77,1989.53-.2,1547.09,.17,999.99Zm357.84-348.74c-9.96,0-19.21-.67-28.33,.17-11.65,1.07-17.37,7.76-17.94,19.38-.36,7.28-.59,14.57-.57,21.86,.12,43.2,.43,86.4,.5,129.6,.31,192.72,.56,385.45,.84,578.17,.03,17.65,6.14,23.88,23.45,23.88,209.85,0,419.71-.02,629.56,.12,5.16,0,10.61,.97,15.42,2.79,32.32,12.23,65.62,20.38,99.97,23.65,59.11,5.62,116.54-2.11,172.2-23.03,5.83-2.19,12.41-3.37,18.65-3.38,130.74-.19,261.47-.14,392.21-.15,16.41,0,23.13-6.47,23.09-22.8-.05-16.25-.77-32.5-.77-48.76-.04-225.3,0-450.59,0-675.89,0-20.15-5.91-26.15-25.94-26.16-38.72-.03-77.43,0-116.15,0h-10.38c.77-8.94-3.23-17.56,7.43-22.13,2.07-.89,3.29-5.7,3.45-8.77,.46-8.67,.25-17.39,.14-26.08-.12-9.74-4.71-14.49-14.38-14.51-42.08-.08-84.17-.14-126.25,.16-3.82,.03-8.42,1.79-11.29,4.3-6.39,5.6-6.08,40.99,.98,45.35,9.53,5.88,5.83,13.45,5.85,21.69-18.28,0-35.92-.19-53.55,.11-5.36,.09-8.66-1.71-11.83-6.02-22.27-30.24-44.94-60.19-67.17-90.45-3.67-5-7.33-7.15-13.75-7.14-90.33,.24-180.67,.22-271,.04-5.91-.01-9.64,1.65-13.22,6.53-22.41,30.49-45.28,60.64-67.73,91.11-3.21,4.36-6.52,5.94-11.84,5.92-44.89-.19-89.78-.1-134.66-.14-2.65,0-5.3-.36-7.87-.54v-17.21c4.1,0,7.71,.23,11.28-.05,8.85-.68,14.78-6.31,15.03-15.08,.36-12.62,.41-25.26-.01-37.87-.34-9.96-6.42-15.85-15.89-15.86-51.62-.09-103.24-.1-154.86,0-11.05,.02-16.99,6.15-17.16,17.34-.17,10.94-.15,21.89-.01,32.83,.16,13.16,5.84,18.6,19.21,18.72,2.47,.02,4.93,0,7.69,0v17.01h-66.16c0-4.34,.28-7.99-.05-11.59-1.02-11.13-6.27-17.03-15.85-17.05-52.18-.12-104.37-.14-156.55,.02-9.63,.03-15.37,6.27-15.75,16.03-.16,4.14-.03,8.29-.03,13.9Z"/><path d="M865.67,1356.79H334V830.34h493.32c-64.37,79.66-94.2,169.8-86.93,271.04,7.25,101.04,50.19,185.45,125.28,255.41Z"/><path d="M1370.51,1356.56c142.54-126.22,176.18-359.1,38.78-526.03h254.56v526.03h-293.34Z"/><path d="M1118.41,744.92c177.35,.31,328.33,141.92,328.37,328.87,.04,187.86-153.77,332.44-335.97,328.71-173.77-3.56-324.54-145.62-321.55-334.63,2.86-180.69,150.23-322.97,329.16-322.95Zm4.1,606.99c147.13,2.7,278.16-118.13,279.12-276.33,.93-154.1-121.75-279.17-275.32-280.45-156.1-1.3-280.81,122.94-282.07,276.19-1.29,157.09,128.49,282.96,278.27,280.6Z"/><path d="M559.54,797.62h-148.79v-31.14h148.79v31.14Z"/><path d="M703.13,782.22c-.11,8.76-7.65,16.09-16.18,15.74-8.47-.35-15.05-7.38-14.99-16.02,.05-8.3,7.23-15.76,15.31-15.91,8.49-.17,15.97,7.48,15.86,16.19Z"/><path d="M1122.8,1344.35c-149.65,0-270.88-121.15-270.71-270.8,.17-151.3,124.29-273.33,276-270.62,146.51,2.62,266.19,123.34,265.59,271.7-.6,149.18-121.29,269.72-270.88,269.72Z"/></svg>