<?xml version="1.0" encoding="UTF-8"?>
<svg id="a" xmlns="http://www.w3.org/2000/svg" viewBox="0 0 2000 2000"><path d="M1043.02,1663.65v-20.18h243.27v-93.1h-316.22v-20.64h316.3v-95.39h-243.39v-19.98h243.27v-85.17h-243.21v-20.07h243.22v-93.77h-316.14v-20.07h316.4v-95.16h-243.47v-19.99h243.26v-86.22h-243.3v-19.99h243.34v-92.76h-316.15v-20.3h316.02v-95.55h-243.04v-20.65h243.27v-85.63h-243.35v-19.68h243.17v-95.11h-316.06v-20.29h315.98v-122.69H629.93V1930.7c-148.69-60.01-275.54-148.43-379.82-267.94C79.34,1467.06-5.21,1238.41,.25,978.73,11.23,455.75,414.97,51.62,898.16,5.22c270.5-25.98,514.55,45.01,726.85,215.14,194.15,155.59,315.13,357.78,358.32,603.16,46.56,264.49-4.32,511.04-153.77,734.61-132.19,197.75-314.63,329.82-542.48,401.64v-74.44h-316.86v-20.21h316.08v-95.84h-243.03v-20.36h243.14v-85.26h-243.38Z"/></svg>