<?xml version="1.0" encoding="UTF-8"?>
<svg id="a" xmlns="http://www.w3.org/2000/svg" viewBox="0 0 2000 2000"><path d="M.76,999.56C-.54,451.96,447.23-9.72,1018.93,.16c541.38,9.35,982.08,452.62,980.31,1004.51-1.75,544.7-447.12,1005.8-1019.87,995.16C438.49,1989.77,.18,1547.28,.76,999.56Zm329.4,376.99H1672.41v-53.29c-17.74,0-34.24,.96-50.56-.29-13.71-1.05-26.87-5.29-28.77-25.83-.77-8.28-2.16-16.76-1.15-24.88,2.32-18.66,8.75-26.37,21.31-27.6,19.19-1.88,38.71-.49,58.56-.49v-55.58h-9.77c-40.1,0-80.2,.05-120.3-.02-19.03-.03-30.83-11.81-30.83-30.86-.04-105.23-.09-210.45,.17-315.68,.01-5.78,1.81-12.07,4.49-17.23,5.41-10.41,15.54-13.28,26.47-13.31,40.38-.11,80.76-.04,121.14-.04h8.55v-53.9c-17.1,0-33.6,.97-49.93-.3-13.78-1.08-26.77-5.29-28.74-25.87-.79-8.27-2.14-16.76-1.12-24.89,2.35-18.79,8.95-26.37,21.36-27.56,19.2-1.83,38.71-.48,58.49-.48v-55.16H330.26v53.46c15.9,0,31.28-.33,46.64,.09,15.77,.44,31.21,6.55,32.19,26.01,.42,8.3,2.06,16.74,1.12,24.88-1.82,15.71-7.75,27.01-25.42,28.3-8.56,.63-17.13,1.25-25.7,1.48-9.68,.25-19.37,.06-28.9,.06v53.88h9.5c40.38,0,80.76-.25,121.14,.11,19.28,.17,30.28,11.06,30.32,30.35,.23,105.51,.17,211.01-.07,316.52-.01,5.54-1.6,11.62-4.21,16.51-5.44,10.23-15.38,13.57-26.35,13.6-40.38,.12-80.76,.05-121.14,.05h-9.07v53.88c15.68,0,30.8-.23,45.9,.06,16.85,.33,32.03,7.03,32.96,26.16,.4,8.31,1.85,16.72,1.03,24.91-1.15,11.52-4.79,22.57-17.6,26.47-5.95,1.81-12.32,2.89-18.53,3.07-14.49,.44-29.01,.14-43.92,.14v53.28Z"/><path d="M760.7,811.44c61.12,0,122.24-.07,183.36,.06,11.08,.02,21.79,2.36,27.23,13.41,2.58,5.24,4.34,11.49,4.35,17.29,.25,105.21,.36,210.42,.03,315.63-.06,20.3-10.43,30.62-30.79,30.65-122.8,.21-245.6,.11-368.41,.09-19.81,0-31.36-11.46-31.37-31.17-.03-104.93-.03-209.86,0-314.78,0-19.7,11.56-31.15,31.38-31.16,61.4-.03,122.8-.01,184.2-.01Z"/><path d="M1243.33,811.44c60.84,0,121.68-.03,182.51,.03,10.97,.01,21.03,2.97,26.48,13.29,2.71,5.13,4.52,11.43,4.53,17.21,.26,105.48,.34,210.97,.06,316.45-.05,19.12-10.86,29.97-29.74,30.02-122.52,.3-245.03,.28-367.55,.01-18.75-.04-29.83-10.95-29.86-30.8-.17-104.92-.09-209.85-.07-314.77,0-20.15,11.51-31.42,31.97-31.42,60.56-.02,121.11,0,181.67,0Z"/><path d="M517.3,758.27c-9.11-.74-18.22-1.47-27.33-2.23-17.72-1.48-23.53-12.62-25.35-28.38-.94-8.13,.71-16.56,1.16-24.86,.92-17.18,12.41-24.63,27.18-25.56,17.72-1.12,35.63,.17,53.42,1.15,17.75,.98,23.54,12.51,25.35,28.27,.94,8.13-.77,16.56-1.15,24.86-.89,19.31-16.39,25.35-32.22,26-7,.29-14.02,.05-21.03,.05l-.05,.71Z"/><path d="M680.22,676.06c9.11,.72,18.4,.57,27.3,2.35,18.73,3.75,25.53,11.88,25.89,30.38,.18,9.12-.07,18.44-1.79,27.35-2.7,13.92-13.5,20.32-26.34,20.9-17.76,.79-35.81,.99-53.37-1.36-18.86-2.52-25.55-11.65-25.91-30.15-.18-9.12,.48-18.33,1.71-27.37,1.67-12.26,14.5-20.94,30.6-21.37,7.28-.2,14.58-.03,21.87-.03,.02-.23,.03-.46,.05-.69Z"/><path d="M841.48,758.28c-9.39-.74-18.96-.59-28.14-2.39-18.63-3.66-25.48-11.93-25.82-30.44-.17-9.12,.04-18.45,1.81-27.35,2.75-13.87,13.55-20.29,26.4-20.85,17.76-.76,35.81-.93,53.37,1.39,18.75,2.48,25.5,11.71,25.84,30.22,.17,9.12-.47,18.34-1.72,27.37-1.7,12.25-14.56,20.88-30.67,21.3-7,.18-14.02,.03-21.03,.03l-.05,.72Z"/><path d="M1002.69,758.3c-9.39-.75-18.79-1.45-28.17-2.27-17.95-1.57-23.51-12.78-25.32-28.4-.94-8.13,.75-16.56,1.17-24.85,.89-17.24,12.47-24.59,27.2-25.54,17.71-1.14,35.64,.13,53.42,1.17,17.98,1.05,23.51,12.67,25.32,28.29,.94,8.13-.79,16.56-1.16,24.86-.86,19.25-16.38,25.33-32.23,25.98-6.72,.27-13.46,.05-20.19,.05-.02,.24-.03,.49-.05,.73Z"/><path d="M1316.92,758.25c-9.12-.71-18.41-.53-27.31-2.32-18.76-3.76-25.55-11.88-25.93-30.36-.19-9.12,.52-18.32,1.7-27.37,1.46-11.2,11.3-19.98,27.23-20.99,17.71-1.12,35.66-.07,53.41,1.3,20.26,1.57,23.98,15.92,24.98,30.26,.63,9.05-.39,18.32-1.61,27.36-1.65,12.26-14.46,20.96-30.56,21.41-7.28,.2-14.58,.03-21.87,.03l-.05,.68Z"/><path d="M518.34,1241.73c9.39,.76,18.79,1.4,28.17,2.29,19.91,1.89,24.28,15.67,25.29,30.13,.65,9.33,.15,19.03-1.75,28.17-2.88,13.83-14.02,19.99-26.74,20.55-17.76,.78-35.66-.09-53.43-1.27-19.95-1.33-24.29-15.54-25.29-30-.65-9.33,.28-18.9,1.66-28.19,1.76-11.91,14.5-20.37,30.18-20.89,7.28-.24,14.58-.04,21.87-.04l.05-.74Z"/><path d="M679.77,1324c-9.39-.75-18.78-1.52-28.17-2.23-17.66-1.34-23.63-12.64-25.44-28.3-.94-8.14,.64-16.58,1.11-24.88,.97-17.09,12.27-24.71,27.14-25.62,17.72-1.09,35.64,.05,53.42,1.14,19.85,1.22,24.1,15.01,25.48,29,.81,8.16-.66,16.57-1.33,24.85-1.55,19.01-15.62,24.15-31.12,25.24-6.97,.49-14.01,.08-21.02,.08-.02,.24-.03,.48-.05,.73Z"/><path d="M840.88,1324.02c-9.39-.77-18.79-1.42-28.16-2.33-19.8-1.92-24.15-15.9-25.1-30.3-.6-9.05,.44-18.31,1.6-27.36,1.44-11.23,11.13-20.03,27.12-21.1,17.71-1.18,35.65,.03,53.42,1.24,19.83,1.35,24.16,15.77,25.11,30.18,.6,9.05-.41,18.32-1.61,27.36-1.63,12.31-14.35,21.05-30.45,21.53-7.28,.22-14.58,.04-21.87,.04l-.05,.75Z"/><path d="M1002.82,1324c-9.39-.75-18.78-1.52-28.17-2.23-17.66-1.33-23.64-12.65-25.45-28.29-.94-8.14,.63-16.58,1.11-24.88,.98-17.06,12.24-24.73,27.13-25.63,17.72-1.08,35.64,.05,53.42,1.14,19.88,1.21,24.11,15.04,25.49,28.99,.81,8.16-.66,16.57-1.33,24.85-1.54,19.04-15.67,24.17-31.12,25.25-6.98,.49-14.01,.08-21.02,.08-.02,.24-.03,.48-.05,.73Z"/><path d="M1316.92,1324.03c-9.39-.77-18.8-1.34-28.16-2.36-20.26-2.21-23.98-16.1-24.98-30.39-.63-9.05,.42-18.31,1.6-27.36,1.46-11.2,11.28-19.98,27.22-21,17.71-1.13,35.66-.07,53.41,1.3,20.3,1.57,23.99,15.95,24.99,30.25,.64,9.05-.39,18.32-1.61,27.36-1.66,12.27-14.45,20.97-30.55,21.42-7.28,.2-14.58,.03-21.87,.03-.02,.25-.04,.5-.06,.75Z"/><path d="M1481.3,758.3c-8.55-.76-17.1-1.45-25.64-2.28-19.93-1.92-24.3-15.71-25.3-30.13-.65-9.33-.14-19.02,1.75-28.17,2.86-13.86,14.01-19.92,26.73-20.57,16.07-.82,32.29,.13,48.38,1.25,19.97,1.4,24.3,15.59,25.31,30.01,.65,9.33-.29,18.9-1.66,28.19-1.76,11.91-14.48,20.36-30.17,20.91-6.44,.23-12.9,.04-19.34,.04-.02,.24-.04,.49-.06,.73Z"/><path d="M1480.97,1323.95c-8.27-.71-16.71-.61-24.79-2.28-18.75-3.87-25.54-11.91-25.93-30.38-.19-9.11,.52-18.32,1.7-27.37,1.46-11.2,11.28-19.84,27.22-21.02,15.74-1.16,31.91-.91,47.5,1.39,18.88,2.79,25.57,11.69,25.95,30.16,.19,9.11-.48,18.33-1.7,27.37-1.66,12.27-14.45,20.95-30.55,21.42-6.44,.19-12.9,.03-19.34,.03l-.05,.67Z"/><path d="M1159.82,758.27c-7.99-.75-15.98-1.43-23.95-2.27-18.32-1.92-23.37-13.07-25.15-28.55-.94-8.13,.69-16.56,1.24-24.85,1.18-17.87,12.85-24.35,28.16-25.47,14.62-1.07,29.48,.15,44.17,1.29,18.36,1.43,23.37,12.96,25.16,28.44,.94,8.13-.73,16.56-1.23,24.85-1.17,19.38-16.02,24.8-31.51,25.79-5.58,.36-11.21,.06-16.82,.06l-.06,.71Z"/><path d="M1160.32,1323.96c-7.99-.72-16.13-.71-23.93-2.32-18.61-3.83-25.48-11.97-25.82-30.48-.17-9.12,.49-18.33,1.71-27.37,1.54-11.42,12.51-20.24,28.16-21.04,14.39-.74,29.11-.66,43.3,1.54,18.72,2.9,25.5,11.78,25.84,30.28,.17,9.12-.47,18.33-1.72,27.37-1.69,12.24-14.56,20.86-30.67,21.31-5.6,.15-11.21,.02-16.82,.02-.02,.23-.04,.46-.06,.68Z"/></svg>