<?xml version="1.0" encoding="UTF-8"?>
<svg id="a" xmlns="http://www.w3.org/2000/svg" viewBox="0 0 2000 2000"><path d="M.2,999.25C-.94,451.9,446.97-9.88,1019.25,.16c541.45,9.5,982.05,452.52,980.55,1003.98-1.48,545.05-447.37,1006.5-1020.76,995.67C437.89,1989.6-.54,1547.01,.2,999.25Zm444.92-95.93c2.4-1.27,3.84-2.13,5.36-2.82,55.72-25.29,111.49-50.44,167.15-75.87,53.36-24.38,106.79-48.6,159.78-73.76,24.1-11.44,28.01-29.86,12.17-51.42-9.94-13.53-21.12-26.15-31.38-39.45-10.2-13.23-26.91-14.99-40.84-8.54-121.94,56.47-243.91,112.88-365.76,169.55-8.97,4.17-19.72,8.33-25.01,15.79-12.05,16.99-22.47,35.45-31.2,54.39-7.81,16.93-3.84,33.83,9.72,47,10.01,9.73,20.72,18.95,32.05,27.1,71.88,51.66,143.98,103.04,216.11,154.35,29.42,20.93,59.19,41.38,88.65,62.27,13.6,9.65,36.12,10.75,43.87-5.86,8.25-17.7,16.9-35.32,23.55-53.63,7.66-21.09,3.18-32.14-15.39-45.16-46.1-32.31-92.26-64.54-138.4-96.79-36.48-25.5-72.98-50.99-110.43-77.15Zm1049.19,252.35c-2.9,1.46-5.09,2.66-7.36,3.69-103.75,47.31-207.54,94.53-311.21,142.04-8.48,3.89-16.71,8.91-23.95,14.77-15.09,12.21-14.19,25.3-3.57,40.75,9.17,13.36,19.51,25.94,29.63,38.63,13.7,17.17,26.45,20.08,46.54,10.71,96.51-45.02,192.93-90.22,289.51-135.11,29.58-13.75,59.57-26.61,89.25-40.13,3.41-1.55,7.02-4.2,8.91-7.32,10.53-17.45,20.82-35.05,30.64-52.9,5.45-9.9,6.84-20.74,2.92-31.63-5.91-16.44-18.92-26.8-32.43-36.5-73.98-53.12-147.87-106.37-222.16-159.07-33.09-23.48-66.68-46.29-100.7-68.38-16.71-10.85-31.38-5.91-39.97,12.29-7.5,15.87-14.31,32.15-20.11,48.71-7.49,21.41-3.43,32.47,15,45.37,58.07,40.64,116.23,81.18,174.34,121.77,24.78,17.31,49.53,34.67,74.73,52.32Zm-297.7-458.13c.29-7.6-4.58-17.34-15.44-23.12-10.84-5.77-22.06-10.88-33.35-15.7-16.75-7.16-32.26-4.55-44.32,9.2-8.44,9.62-16.25,20.12-22.5,31.27-89.89,160.36-179.38,320.95-269.15,481.37-34.84,62.25-70.12,124.26-105.3,186.33-7.63,13.45-11.02,27.91-11.8,43.21-.53,10.41,3.4,18.44,11.49,24.77,8.16,6.38,16.17,12.97,24.28,19.43,13.66,10.87,26.08,12.73,39.93,2.33,12.15-9.13,23.91-19.87,32.71-32.15,15.46-21.57,29.36-44.37,42.45-67.49,60.13-106.19,119.71-212.69,179.58-319.03,50.53-89.74,101.27-179.35,151.73-269.12,11.58-20.61,20.52-42.19,19.7-71.29Z"/></svg>