<?xml version="1.0" encoding="utf-8"?>
<!-- Generator: Adobe Illustrator 25.0.0, SVG Export Plug-In . SVG Version: 6.00 Build 0)  -->
<svg version="1.1" id="svg2" xmlns="http://www.w3.org/2000/svg" xmlns:xlink="http://www.w3.org/1999/xlink" x="0px" y="0px"
	 viewBox="0 0 214.6 205.3" style="enable-background:new 0 0 214.6 205.3;" xml:space="preserve">
<style type="text/css">
	.st0{fill:#FFFFFF;}
</style>
<path class="st0" d="M158.7,118.3l55.9-17.6L158,85.2l34.9-47.1L138,58.6L138.5,0l-32.2,49l-34-47.8L75,59.8L19.3,41.2L55.9,87
	L0,104.6l56.6,15.5l-34.9,47.1l54.9-20.6l-0.5,58.7l32.2-49l34,47.8l-2.7-58.6l55.6,18.6L158.7,118.3z M125.3,129l-17.6-12.4
	l-17.3,13l6.3-20.7L79,96.6l21.6-0.4l6.4-20.6l7,20.4l21.6-0.4l-17.3,13L125.3,129z"/>
</svg>
