<svg id="svg2" xmlns="http://www.w3.org/2000/svg" xmlns:xlink="http://www.w3.org/1999/xlink" viewBox="0 0 1757.07 528.24"><defs><style>.cls-1{fill:none;}.cls-2{clip-path:url(#clip-path);}.cls-3{fill:#030;}.cls-4{fill:#044a04;}.cls-5{fill:#fff;}.cls-6{clip-path:url(#clip-path-2);}.cls-7{fill:#231f20;}</style><clipPath id="clip-path" transform="translate(0 -3.7)"><rect class="cls-1" y="3.7" width="1757.07" height="544.85"/></clipPath><clipPath id="clip-path-2" transform="translate(0 -3.7)"><rect class="cls-1" x="-455.23" y="-390.37" width="2666.67" height="1333.33"/></clipPath></defs><g id="g10"><g id="g12"><g class="cls-2"><g id="g14"><g id="g20"><path id="path22" class="cls-3" d="M510.42,236A155.33,155.33,0,0,1,527,238.61c10.56,3,11.32,8.29,11.69,18.85.76,12.44.76,33.18.76,74.64,0,66.35-1.13,92-1.89,101-.75,10.94-3.39,15.08-10.56,17-5.27,1.5-8.66,1.5-19.22,3-1.13.76-1.13,5.66,0,6.42,15.46,0,32.42-1.14,50.89-1.14,24.13,0,67.86,1.51,93.11,1.51,17,0,21.12-1.51,23-4.53,6.79-10.55,17.34-49,19.23-60.69-.38-1.51-5.28-2.64-6.41-1.51-6.79,16.59-18.85,35.81-26.39,43.36-7.54,7.91-13.19,9.8-20.73,9.8-14.7.75-44.11,0-52.4-2.26-4.15-.76-6.41-4.91-6.79-11.31-.75-12.45-1.13-61.83-.75-97.27.37-33.92.37-71.62.75-79.16.38-10.18,1.13-14.7,9.43-17.34,4.14-1.51,7.16-1.88,15.45-3,1.13-.75.76-5.65,0-6.41-9.42.38-24.88,1.13-47.87,1.13-28.28,0-36.95-1.13-47.5-1.13-.76.38-1.14,5.66-.38,6.41M786.36,363.39c0,3.77.37,4.9,0,9.05,0,1.13-1.89,3.77-2.64,4.15-15.08,6.78-59.19,17.71-67.86,23.37-2.26,4.15-5.65,15.46-5.65,19.6,0,14.33,5.28,27.14,13.19,34.68a30.31,30.31,0,0,0,21.11,8.67c6.41,0,22.62-6,39.59-18.84,0,0,1.51-.38,1.51.37a48.17,48.17,0,0,0,1.88,7.16c2.64,6.41,8.67,11.31,20.73,11.31,13.2,0,26-4.9,35.06-15.07.76-.76,1.89-7.55,1.89-8.68a33.62,33.62,0,0,1-11.31,1.89c-10.18,0-12.44-10.56-12.44-16.59,0-14.7.75-39.2.75-57.3,0-12.06-1.88-27.89-8.29-38.45C806,316.27,792.39,308,773.92,308c-9.8,0-33.93,10.17-51.65,23-1.5,1.51-7.16,17-7.16,19.23,0,1.88,5.66,6.78,7.16,6,2.26-6.41,10.18-20.74,13.2-23,2.63-2.26,9.42-4.52,17.71-4.52,10.18,0,21.49,4.52,27.52,14,4.15,6,5.66,13.19,5.66,20.73M786,385.63c0,6.41,0,32.42-.37,44.11,0,3.77-1.14,6.41-3,7.91-3,2.27-7.92,3-11.69,3-13.19,0-24.88-11.31-24.88-29,0-4.52,1.89-12.43,3-13.57,3.39-3.77,22.62-9.42,35.81-13.94.38,0,1.13,1.13,1.13,1.5m80.3,12.82c-1.14-1.13-6,0-6.79,1.51,1.13,11.31,5.28,48.25,9,54.28,6.78,4.53,30.16,10.94,52.4,10.94,52.78,0,83.68-29,83.68-69.37,0-26-15.07-43-38.44-58.81-14.33-9.42-26-15.45-40.72-26.76-15.08-11.31-23.37-23.75-23.37-41.09,0-20.73,13.95-36.95,37.32-36.95,11.69,0,20.36,1.89,29,7.92,10.17,6.41,14.32,17.34,16.58,41.09.76.76,5.66.38,6.41-.76,1.51-21.86,4.15-36.94,6.41-50.89-14.32-.75-29.78-5.65-54.66-5.65-41.09,0-75,23.37-75,64.84,0,33.18,19.23,51.27,55.8,75,30.53,20,42.59,33.17,42.59,55.79,0,23-14.7,36.57-35.43,36.57-14,0-26-2.64-35.82-9.43-13.57-9.42-21.86-21.86-29-48.25m239-35.06c0,3.77.38,4.9,0,9.05,0,1.13-1.89,3.77-2.64,4.15-15.08,6.78-59.18,17.71-67.86,23.37-2.26,4.15-5.65,15.46-5.65,19.6,0,14.33,5.28,27.14,13.19,34.68a30.31,30.31,0,0,0,21.12,8.67c6.4,0,22.61-6,39.58-18.84,0,0,1.51-.38,1.51.37a49.42,49.42,0,0,0,1.88,7.16c2.64,6.41,8.67,11.31,20.74,11.31,13.19,0,26-4.9,35-15.07.76-.76,1.89-7.55,1.89-8.68a33.62,33.62,0,0,1-11.31,1.89c-10.18,0-12.44-10.56-12.44-16.59,0-14.7.75-39.2.75-57.3,0-12.06-1.88-27.89-8.29-38.45-7.92-12.44-21.49-20.73-40-20.73-9.8,0-33.93,10.17-51.65,23-1.5,1.51-7.16,17-7.16,19.23,0,1.88,5.66,6.78,7.16,6,2.27-6.41,10.18-20.74,13.2-23,2.64-2.26,9.42-4.52,17.71-4.52,10.18,0,21.49,4.52,27.52,14,4.15,6,5.66,13.19,5.66,20.73m-.38,22.24c0,6.41,0,32.42-.37,44.11,0,3.77-1.14,6.41-3,7.91-3,2.27-7.92,3-11.69,3-13.19,0-24.88-11.31-24.88-29,0-4.52,1.89-12.43,3-13.57,3.39-3.77,22.62-9.42,35.81-13.94.38,0,1.13,1.13,1.13,1.5m64.85,73.9c5.65,0,18.09-1.14,37.69-1.14s35.82,1.14,40.34,1.14c.76-1.14,1.13-5.29.76-6.42-4.53-.75-8.3-1.13-12.45-3-5.65-2.64-6.78-4.9-7.53-16.59-.76-14.7-.76-43-.76-107.06,0-33.18,0-62.58.38-81.43,0-23.75,1.13-36.19,3-40.33,0-.76-1.13-1.89-1.88-2.27-12.82,6-41.09,12.82-59.19,14-.75,1.13-1.13,4.9,0,5.66,6.41.75,10.56,1.88,13.57,3.39,4.15,1.5,4.53,6,4.91,10.17,1.5,15.46,1.5,59.19,1.5,97.26,0,35.44-.38,84.07-.75,100.66-.38,11.69-2.26,14.33-6.41,16.21s-6.78,2.26-13.19,3.39c-.76,1.13-.76,5.28,0,6.42m89,0c5.65,0,18.09-1.14,37.69-1.14s35.82,1.14,40.34,1.14c.76-1.14,1.13-5.29.76-6.42-4.53-.75-8.3-1.13-12.44-3-5.66-2.64-6.78-4.9-7.54-16.59-.76-14.7-.76-43-.76-107.06,0-33.18,0-62.58.38-81.43,0-23.75,1.14-36.19,3-40.33,0-.76-1.14-1.89-1.88-2.27-12.83,6-41.1,12.82-59.2,14-.75,1.13-1.12,4.9,0,5.66,6.41.75,10.56,1.88,13.58,3.39,4.14,1.5,4.52,6,4.9,10.17,1.5,15.46,1.5,59.19,1.5,97.26,0,35.44-.37,84.07-.75,100.66-.37,11.69-2.26,14.33-6.41,16.21s-6.78,2.26-13.19,3.39c-.75,1.13-.75,5.28,0,6.42m148.15-203.2c0-2.64-.76-8.29-3-11.31a23.39,23.39,0,0,0-13.57-4.15c-6.41,0-16.58,3.4-20,6.41-2.26,3-3,9.43-2.26,14,.38,4.9,3,12.44,9,14.7,4.52,1.89,18.09-.38,21.11-1.88a23.72,23.72,0,0,0,8.67-17.72m20,196.78a65,65,0,0,1-12.44-2.64c-4.9-1.88-7.16-4.52-7.54-14.7-.38-16.58-.38-45.61-.38-65.21,0-21.49.76-54.29.76-63.72-16.59,7.92-45.62,12.45-55,12.82a18.16,18.16,0,0,0,0,6.41c6,1.89,9.42,3,12.82,6.41,2.26,3,2.64,6.79,2.64,9.8.75,5.66.75,21.87.75,35.81,0,18.85-.38,47.88-.75,56.55-.38,9.43-1.89,13.95-7.17,15.83-3.39,1.51-8.29,2.27-12.81,2.64-.76.38-.76,5.66,0,6.42,7.91,0,21.1-1.14,40-1.14,14.69,0,28.64,1.14,37.69,1.14,1.51-.76,1.51-5.29,1.51-6.42m90.1-89.72c0,3.77.37,4.9,0,9.05,0,1.13-1.89,3.77-2.64,4.15-15.08,6.78-59.19,17.71-67.86,23.37-2.26,4.15-5.65,15.46-5.65,19.6,0,14.33,5.27,27.14,13.19,34.68a30.29,30.29,0,0,0,21.11,8.67c6.41,0,22.62-6,39.58-18.84,0,0,1.51-.38,1.51.37a49.47,49.47,0,0,0,1.89,7.16c2.63,6.41,8.67,11.31,20.73,11.31,13.2,0,26-4.9,35.06-15.07.76-.76,1.89-7.55,1.89-8.68a33.65,33.65,0,0,1-11.31,1.89c-10.18,0-12.44-10.56-12.44-16.59,0-14.7.75-39.2.75-57.3,0-12.06-1.89-27.89-8.29-38.45-7.92-12.44-21.49-20.73-40-20.73-9.8,0-33.93,10.17-51.65,23-1.51,1.51-7.16,17-7.16,19.23,0,1.88,5.65,6.78,7.16,6,2.26-6.41,10.18-20.74,13.19-23,2.65-2.26,9.43-4.52,17.72-4.52,10.18,0,21.49,4.52,27.52,14,4.15,6,5.66,13.19,5.66,20.73m-.38,22.24c0,6.41,0,32.42-.38,44.11,0,3.77-1.13,6.41-3,7.91-3,2.27-7.92,3-11.69,3-13.19,0-24.88-11.31-24.88-29,0-4.52,1.89-12.43,3-13.57,3.39-3.77,22.62-9.42,35.81-13.94.38,0,1.13,1.13,1.13,1.5m67.86,67.48c-.76,1.51-.76,5.28,0,6.42,7.53-.39,13.95-1.14,37.69-1.14,17.34,0,29.78.75,41.09,1.14.38-1.14.76-5.66.38-6.42a57.51,57.51,0,0,1-12.44-2.64c-4.9-1.13-7.54-3.39-8.3-15.07-.75-15.84-.75-64.84-.75-88.59,0-4.15,1.51-6.79,3.4-8.3a38.42,38.42,0,0,1,22.24-7.54c7.92,0,13.19,1.51,18.09,5.28,6.41,4.9,9.43,12.82,10.93,20,3,14.7,2.27,67.1,1.51,81.42-.75,7.92-1.88,11.69-7.92,13.2a72.08,72.08,0,0,1-11.3,2.26c-.38.38-.76,5.66,0,6.42,10.93-.39,20.73-1.14,41.09-1.14,22.24,0,29.77,1.14,35.43,1.14,1.13-1.14,1.51-5.29,1.51-6.42a38.65,38.65,0,0,1-16.21-5.65,8.07,8.07,0,0,1-3.39-6.79c-.76-12.06-.38-52-.38-69.74,0-17.34-1.88-32-8.67-43-7.54-12.82-18.85-20-35.44-20-11.68,0-29.4,7.91-49.38,23.74-.38.76-1.51.38-1.51-.75.38-6.41.75-15.08,1.51-21.87a4.37,4.37,0,0,0-1.13-2.26c-11.69,6.79-34.68,13.2-54.66,15.46-.76.75-1.13,4.9-1.13,5.66,15.07,4.89,15.83,10.18,16.58,14,.38,3.39.76,24.12.76,36.56,0,15.08,0,45.24-.76,56.93-.37,9.42-3,13.94-7.53,15.45a74.22,74.22,0,0,1-11.31,2.26" transform="translate(0 -3.7)"/></g><g id="g24"><path id="path26" class="cls-4" d="M53.91,453.49c-1.14,1.13-1.14,4.52,0,6,9.8.38,32.79-1.13,53.53-1.13,14.7,0,36.19,1.13,49.38,1.13.76-.75,1.13-4.9.76-6-8.67-.75-15.08-1.14-20.74-3-7.91-2.26-12.44-4.52-13.19-25.63-1.13-20-1.51-128.17-1.51-181.7,0-1.13.76-3,1.88-3.4,7.92-.37,64.85-.75,78.79,0a4.88,4.88,0,0,1,3.4,4.53c.37,13.19.37,27.89.37,124.78,0,9.42-.37,55.41-.75,64.46-.38,11.31-1.89,15.83-7.92,17.72-3.39,1.12-7.16,1.51-12.82,2.26-.75,1.5-1.13,4.52,0,6,6.42,0,20-1.13,32.8-1.13,15.46,0,33.18.75,37.7.75.38-.75,1.13-4.52,0-5.65a83.58,83.58,0,0,1-12.44-2.26c-7.16-1.89-9.42-5.28-9.8-17-.76-10.18-1.13-61.82-1.13-88.21,0-2.26,1.88-6,4.9-8.67a42.69,42.69,0,0,1,28.27-10.18c23.38,0,32.42,16.21,34.68,27.14,3.4,17.35,2.27,55.79,1.89,75.78-.38,16.58-1.89,18.09-6.41,20.35-2.64,1.13-8.29,1.88-14.7,3-.76,1.13-1.13,5.28,0,6,5.27-.38,21.11-.75,33.55-1.13,16.59-.38,31.66,1.13,36.57,1.13.75-.38,1.88-4.9,1.5-6-10.55-1.14-15.83-2.26-20.73-6-2.64-2.26-2.26-5.66-2.26-6.79-.38-16.59-.75-54.66-.75-73.89,0-37.32-15.46-57.67-43.36-57.67-14.32,0-31.66,7.54-51.64,23-.76.38-1.51,0-1.51-.37V238.24c.37-29.79.75-35.82.75-37.32a2,2,0,0,0-1.88-1.89c-1.14,0-10.56,4.52-23.38,4.9-.75,0-1.88,1.89-1.88,2.64v20a1.58,1.58,0,0,1-1.51,1.5l-166.62.38c-9.05,0-21.11-2.26-27.9-5.27a10.08,10.08,0,0,0-3.39,0c-.76,15.45-3.77,40-6.41,55.41.38,1.13,5.28,2.26,6.41,1.51,5.28-14.33,10.18-24.51,15.83-32,3-4.15,7.17-8.3,14.7-8.3,8.3-.75,46.37-.75,53.16-.37A3.3,3.3,0,0,1,92.36,242c0,60.31-.38,164.36-.75,180.94C90.47,441.05,89,448.59,78,450.1c-4.91,1.13-12.07,2.25-24.13,3.39M490.45,426c-13.58,12.82-26.77,15.83-41.1,15.83-15.83,0-30.15-5.27-41.46-19.22-8.3-10.18-13.58-26.77-13.95-41.47,0-1.89.75-4.15,2.26-4.15,29-.75,81.43-3.77,96.13-8.67,1.13-.37,1.88-3.77,1.51-4.9-3.39-.38-4.15-1.88-4.53-3-3-18.1-14.7-51.27-49.76-51.27-9.8,0-28.27,5.27-38.45,12.06-20,12.44-32.42,35.44-32.42,66,0,20.36,5.28,42.22,19.61,57.68,10.17,11.31,25.25,18.09,44.1,18.09,18.47,0,40.71-9.8,58.81-29.4a15.76,15.76,0,0,0,.75-6.41c0-.75-1.13-1.13-1.5-1.13m-63-107.06c21.86,0,32.42,23.75,34.68,43,0,1.51-1.51,2.64-2.26,3-7.92,1.88-53.53,3.39-63.71,2.64-.38,0-1.13-1.13-1.13-2.26,1.51-30.16,15.46-46.37,32.42-46.37" transform="translate(0 -3.7)"/></g></g></g></g><g id="g28"><path id="path30" class="cls-3" d="M877.59,49.92,845.48,4.86,848,60.13,795.56,42.56l34.57,43.22L777.35,102.4,830.71,117l-32.93,44.47L849.56,142l-.5,55.33,30.42-46.22,32.11,45.06L909,140.89l52.47,17.58L927,115.25l52.78-16.62L926.37,84l32.92-44.47L907.51,59,908,3.7Z" transform="translate(0 -3.7)"/></g><g id="g32"><path id="path34" class="cls-5" d="M878.54,75.15l6.29,19.37H905.2l-16.48,12,6.3,19.38-16.48-12-16.49,12,6.3-19.38-16.48-12h20.37Z" transform="translate(0 -3.7)"/></g><g id="g36"><g class="cls-6"><g id="g38"><g id="g44"><path id="path46" class="cls-7" d="M560.58,116.47a14.15,14.15,0,0,0,7.79,2.33c5.35,0,8.64-3,8.64-7.42,0-4-2.07-6.36-7.27-8.32-5.72-2.07-9.16-5-9.16-9.86,0-5.25,4.29-9.06,10.38-9.06a13.85,13.85,0,0,1,7.11,1.64l-1,2.17a11.38,11.38,0,0,0-6.3-1.69c-5.78,0-7.74,3.71-7.74,6.51,0,3.93,2.28,5.94,7.42,8,5.88,2.39,9,5.09,9,10.39s-3.71,9.81-11.34,9.81a16.05,16.05,0,0,1-8.54-2.39Z" transform="translate(0 -3.7)"/></g><path id="path48" class="cls-7" d="M592.54,120.39H590V84.67h2.55Z" transform="translate(0 -3.7)"/><g id="g50"><path id="path52" class="cls-7" d="M604.94,120.39V84.67h2.39l13.88,21.09A116,116,0,0,1,627.94,117l.11,0c-.37-4.83-.42-8.91-.42-14.48V84.67h2.44v35.72h-2.34L614.11,99.61a122.12,122.12,0,0,1-6.94-11.55l-.11,0c.27,4.4.32,8.27.32,14.21v18.07Z" transform="translate(0 -3.7)"/></g><g id="g54"><path id="path56" class="cls-7" d="M666.64,119.12a23.08,23.08,0,0,1-9.65,1.8c-8.64,0-16.91-5.51-16.91-18.18,0-10.6,6.84-18.6,18.13-18.6a18.81,18.81,0,0,1,8.27,1.53l-.8,2.12a17,17,0,0,0-7.42-1.53c-9.64,0-15.52,6.25-15.52,16.53,0,9.7,5.51,16,15.1,16a19.26,19.26,0,0,0,8.06-1.65Z" transform="translate(0 -3.7)"/></g><g id="g58"><path id="path60" class="cls-7" d="M693.14,102.63H678.88v15.64h16v2.12h-18.5V84.66H694v2.12H678.88v13.73h14.26Z" transform="translate(0 -3.7)"/></g><g id="g62"><path id="path64" class="cls-7" d="M1086.82,88.53h-.1l-5.62,3.29-.64-2,6.52-3.87h2.33v34.45h-2.49Z" transform="translate(0 -3.7)"/></g><g id="g66"><path id="path68" class="cls-7" d="M1115.87,87.47c-4.72,0-8,4.19-8,9.86,0,5.09,3.18,8.43,7.73,8.43a9.42,9.42,0,0,0,8.17-4.45,3.33,3.33,0,0,0,.47-1.54c0-7.26-2.7-12.3-8.32-12.3Zm-7.74,31.17a15.41,15.41,0,0,0,3.92-.26,12.85,12.85,0,0,0,7.48-4c2.28-2.44,4-5.94,4.66-10.92l-.16,0a10.91,10.91,0,0,1-8.9,4.45c-6.42,0-9.81-5-9.81-10.44,0-6.36,4.35-12.14,11-12.14,5.93,0,10.38,5,10.38,14.37,0,7.79-2.7,13.14-5.88,16.32a15.93,15.93,0,0,1-8.06,4.46,20.13,20.13,0,0,1-4.66.47Z" transform="translate(0 -3.7)"/></g><g id="g70"><path id="path72" class="cls-7" d="M1144.7,118.85c4.67,0,7.9-3.81,7.9-9.64,0-6-3.49-9.12-8.27-9.12a9.1,9.1,0,0,0-7.89,5,4.22,4.22,0,0,0-.59,2c0,6.94,3.13,11.76,8.8,11.76ZM1152,87.69a16.66,16.66,0,0,0-3.71.37c-7.42,1.53-11.66,7.89-12.35,14.68h.11a10.42,10.42,0,0,1,8.9-4.83c6.31,0,10.28,4.67,10.28,11.08,0,6-3.76,12-10.76,12-6.2,0-11.18-5-11.18-14.47,0-6.94,2.44-12.29,5.62-15.63a18,18,0,0,1,9.64-5.09,14.82,14.82,0,0,1,3.45-.43Z" transform="translate(0 -3.7)"/></g><g id="g74"><path id="path76" class="cls-7" d="M1172.74,118.85c5.73,0,8.33-6.52,8.33-15.9,0-9-2.44-15.48-8.27-15.48-5,0-8.27,6.36-8.27,15.48-.16,9.59,3.13,15.9,8.16,15.9Zm-.31,2.12c-5.41,0-10.39-5.3-10.55-17.65,0-12.51,5.51-18,11.29-18,6,0,10.55,5.46,10.55,17.34,0,12.35-4.46,18.28-11.24,18.28Z" transform="translate(0 -3.7)"/></g><g id="g78"><path id="path80" class="cls-7" d="M109.71,513.72H103.6v-2.21h14.88v2.21h-6.14v17.89h-2.63Z" transform="translate(0 -3.7)"/></g><g id="g82"><path id="path84" class="cls-7" d="M142.55,511.51v8.41h9.72v-8.41h2.62v20.1h-2.62v-9.42h-9.72v9.42H140v-20.1Z" transform="translate(0 -3.7)"/></g><g id="g86"><path id="path88" class="cls-7" d="M189,522.19h-7.82v7.24h8.71v2.18H178.6v-20.1h10.85v2.18h-8.26V520H189Z" transform="translate(0 -3.7)"/></g><g id="g90"><path id="path92" class="cls-7" d="M240.06,529.64a13.8,13.8,0,0,0,2.18.12c2.68,0,5.16-1,5.16-3.91,0-2.74-2.36-3.87-5.19-3.87h-2.15Zm0-9.63h2.36c2.74,0,4.35-1.43,4.35-3.37,0-2.36-1.79-3.28-4.41-3.28a11.15,11.15,0,0,0-2.3.18Zm-2.59-8.23a24.94,24.94,0,0,1,4.74-.42c2.59,0,4.26.45,5.52,1.46a4.23,4.23,0,0,1,1.67,3.55,4.77,4.77,0,0,1-3.4,4.41v.06a5.18,5.18,0,0,1,4.14,5,5.43,5.43,0,0,1-1.7,4c-1.4,1.28-3.67,1.88-6.95,1.88a30.1,30.1,0,0,1-4-.24Z" transform="translate(0 -3.7)"/></g><g id="g94"><path id="path96" class="cls-7" d="M282.71,523.26l-2-5.79c-.45-1.31-.75-2.5-1-3.66h-.06c-.3,1.19-.63,2.41-1,3.64l-2,5.81Zm-6.59,2L274,531.61h-2.68l6.82-20.1h3.13l6.86,20.1h-2.77l-2.15-6.32Z" transform="translate(0 -3.7)"/></g><g id="g98"><path id="path100" class="cls-7" d="M310,528.45a9.2,9.2,0,0,0,4.66,1.31c2.65,0,4.2-1.4,4.2-3.43s-1.07-3-3.79-4c-3.28-1.17-5.3-2.87-5.3-5.7,0-3.13,2.59-5.45,6.5-5.45a9.13,9.13,0,0,1,4.44,1l-.72,2.12a7.91,7.91,0,0,0-3.81-1c-2.75,0-3.79,1.64-3.79,3,0,1.88,1.22,2.8,4,3.88,3.39,1.31,5.12,2.95,5.12,5.9s-2.29,5.79-7,5.79a10.44,10.44,0,0,1-5.13-1.28Z" transform="translate(0 -3.7)"/></g><g id="g102"><path id="path104" class="cls-7" d="M348.14,513.72H342v-2.21H356.9v2.21h-6.14v17.89h-2.62Z" transform="translate(0 -3.7)"/></g><g id="g106"><path id="path108" class="cls-7" d="M937.24,531.61v-20.1h2.83l6.44,10.17a58.13,58.13,0,0,1,3.61,6.53l.06,0c-.24-2.68-.3-5.13-.3-8.26v-8.41h2.44v20.1H949.7l-6.38-10.2a64.25,64.25,0,0,1-3.76-6.71l-.08,0c.14,2.54.2,4.95.2,8.29v8.59Zm-23.5-9.42h-7.82v7.24h8.71v2.18h-11.3v-20.1h10.85v2.18h-8.26V520h7.82Zm-34.18,9.42H877v-20.1h2.59Zm-35.28-10.68h2.66c2.77,0,4.53-1.51,4.53-3.81,0-2.59-1.88-3.73-4.62-3.76a10.64,10.64,0,0,0-2.57.24Zm-2.59-9.15a26.84,26.84,0,0,1,5-.42c2.77,0,4.56.51,5.81,1.64a5,5,0,0,1,1.58,3.82,5.28,5.28,0,0,1-3.78,5.13V522c1.54.53,2.47,2,3,4.05a30.94,30.94,0,0,0,1.55,5.52h-2.69a26.42,26.42,0,0,1-1.34-4.8c-.59-2.77-1.67-3.82-4-3.91h-2.45v8.71h-2.59Zm-38.2,9.9c0,4.29,2.32,8.14,6.41,8.14s6.44-3.79,6.44-8.35c0-4-2.09-8.17-6.41-8.17s-6.44,4-6.44,8.38m15.59-.33c0,6.92-4.2,10.59-9.33,10.59-5.31,0-9-4.12-9-10.2,0-6.38,4-10.55,9.33-10.55s9,4.2,9,10.16m-39.57.93h-7.37v-1.94h7.37Zm-29.5-.09H742.2v7.24h8.71v2.18h-11.3v-20.1h10.85v2.18H742.2V520H750Zm-46.34-10.68v11.9c0,4.5,2,6.41,4.68,6.41,3,0,4.89-2,4.89-6.41v-11.9h2.63v11.72c0,6.18-3.25,8.71-7.61,8.71-4.11,0-7.21-2.36-7.21-8.59V511.51Zm-36.89,16.94a9.16,9.16,0,0,0,4.65,1.31c2.66,0,4.21-1.4,4.21-3.43,0-1.87-1.07-3-3.79-4-3.28-1.17-5.31-2.87-5.31-5.7,0-3.13,2.6-5.45,6.5-5.45a9.14,9.14,0,0,1,4.45,1l-.72,2.12a8,8,0,0,0-3.81-1c-2.75,0-3.79,1.64-3.79,3,0,1.88,1.22,2.81,4,3.88,3.4,1.31,5.13,2.95,5.13,5.91s-2.29,5.78-7,5.78a10.44,10.44,0,0,1-5.13-1.28Zm-33.93,0a9.13,9.13,0,0,0,4.65,1.31c2.65,0,4.2-1.4,4.2-3.43,0-1.87-1.07-3-3.78-4-3.28-1.17-5.31-2.87-5.31-5.7,0-3.13,2.59-5.45,6.5-5.45a9.1,9.1,0,0,1,4.44,1l-.72,2.12a7.91,7.91,0,0,0-3.81-1c-2.74,0-3.79,1.64-3.79,3,0,1.88,1.22,2.81,4,3.88,3.4,1.31,5.13,2.95,5.13,5.91s-2.3,5.78-7,5.78a10.44,10.44,0,0,1-5.13-1.28Zm-23.42,3.16h-2.59v-20.1h2.59Zm-61.31-20.1H559v2.18h-8.23v6.68h7.6v2.15h-7.6v9.09h-2.6Zm-38.2,10.17c0,4.29,2.33,8.14,6.41,8.14s6.44-3.79,6.44-8.35c0-4-2.09-8.17-6.41-8.17s-6.44,4-6.44,8.38m15.6-.33c0,6.92-4.21,10.59-9.34,10.59-5.31,0-9-4.12-9-10.2,0-6.38,4-10.55,9.33-10.55s9,4.2,9,10.16m-81,10.26v-20.1h2.83l6.45,10.17a58,58,0,0,1,3.6,6.53l.06,0c-.24-2.68-.3-5.13-.3-8.26v-8.41h2.45v20.1H457l-6.38-10.2a62.34,62.34,0,0,1-3.75-6.71l-.09,0c.15,2.54.21,4.95.21,8.29v8.59Zm-38.2-9.93c0,4.29,2.33,8.14,6.41,8.14s6.44-3.79,6.44-8.35c0-4-2.09-8.17-6.41-8.17s-6.44,4-6.44,8.38m15.59-.33c0,6.92-4.2,10.59-9.33,10.59-5.31,0-9-4.12-9-10.2,0-6.38,4-10.55,9.33-10.55s9,4.2,9,10.16M381,531.61h-2.59v-20.1H381Z" transform="translate(0 -3.7)"/></g><g id="g110"><path id="path112" class="cls-7" d="M979.91,513.72H973.8v-2.21h14.88v2.21h-6.14v17.89h-2.63Z" transform="translate(0 -3.7)"/></g><g id="g114"><path id="path116" class="cls-7" d="M1020.56,522.19h-7.81v7.24h8.7v2.18h-11.3v-20.1H1021v2.18h-8.25V520h7.81Z" transform="translate(0 -3.7)"/></g><g id="g118"><path id="path120" class="cls-7" d="M1046.65,529.55a16.35,16.35,0,0,0,2.63.15c5.54,0,8.55-3.1,8.55-8.53,0-4.74-2.65-7.75-8.14-7.75a14.68,14.68,0,0,0-3,.27Zm-2.59-17.77a36.82,36.82,0,0,1,5.51-.42c3.73,0,6.38.87,8.14,2.51a9.24,9.24,0,0,1,2.84,7.21,10.65,10.65,0,0,1-2.9,7.82c-1.87,1.87-5,2.89-8.88,2.89a41.55,41.55,0,0,1-4.71-.24Z" transform="translate(0 -3.7)"/></g><g id="g122"><path id="path124" class="cls-7" d="M1122.16,531a12.83,12.83,0,0,1-5.31,1c-5.66,0-9.93-3.58-9.93-10.17,0-6.29,4.27-10.55,10.49-10.55a10.81,10.81,0,0,1,4.78.89l-.63,2.12a9.36,9.36,0,0,0-4-.84c-4.71,0-7.85,3-7.85,8.29,0,4.92,2.84,8.08,7.73,8.08a10.47,10.47,0,0,0,4.23-.83Z" transform="translate(0 -3.7)"/></g><g id="g126"><path id="path128" class="cls-7" d="M1147.24,520.93h2.65c2.77,0,4.53-1.52,4.53-3.81,0-2.6-1.87-3.73-4.62-3.76a10.6,10.6,0,0,0-2.56.24Zm-2.6-9.15a26.92,26.92,0,0,1,5-.42c2.78,0,4.57.51,5.82,1.64a5,5,0,0,1,1.58,3.82,5.28,5.28,0,0,1-3.79,5.13V522c1.55.53,2.48,2,3,4.05a33.14,33.14,0,0,0,1.55,5.52h-2.68a26.42,26.42,0,0,1-1.34-4.8c-.6-2.77-1.67-3.82-4-3.91h-2.44v8.71h-2.6Z" transform="translate(0 -3.7)"/></g><path id="path130" class="cls-7" d="M1182.49,531.61h-2.6v-20.1h2.6Z" transform="translate(0 -3.7)"/><g id="g132"><path id="path134" class="cls-7" d="M1210.1,513.72H1204v-2.21h14.88v2.21h-6.14v17.89h-2.63Z" transform="translate(0 -3.7)"/></g><path id="path136" class="cls-7" d="M1242.94,531.61h-2.59v-20.1h2.59Z" transform="translate(0 -3.7)"/><g id="g138"><path id="path140" class="cls-7" d="M1280.75,531a12.79,12.79,0,0,1-5.31,1c-5.66,0-9.93-3.58-9.93-10.17,0-6.29,4.27-10.55,10.5-10.55a10.71,10.71,0,0,1,4.77.89l-.62,2.12a9.44,9.44,0,0,0-4.06-.84c-4.71,0-7.84,3-7.84,8.29,0,4.92,2.83,8.08,7.72,8.08a10.56,10.56,0,0,0,4.24-.83Z" transform="translate(0 -3.7)"/></g><g id="g142"><path id="path144" class="cls-7" d="M1313.17,523.26l-2-5.79c-.45-1.31-.75-2.5-1-3.66h-.05c-.3,1.19-.63,2.41-1,3.64l-2,5.81Zm-6.59,2-2.09,6.32h-2.68l6.83-20.1h3.13l6.85,20.1h-2.77l-2.15-6.32Z" transform="translate(0 -3.7)"/></g><g id="g146"><path id="path148" class="cls-7" d="M1340.78,511.51h2.6v17.92H1352v2.18h-11.19Z" transform="translate(0 -3.7)"/></g><g id="g150"><path id="path152" class="cls-7" d="M1401.68,513.72h-6.11v-2.21h14.87v2.21h-6.14v17.89h-2.62Z" transform="translate(0 -3.7)"/></g><g id="g154"><path id="path156" class="cls-7" d="M1434.51,511.51v8.41h9.73v-8.41h2.62v20.1h-2.62v-9.42h-9.73v9.42h-2.59v-20.1Z" transform="translate(0 -3.7)"/></g><path id="path158" class="cls-7" d="M1473.19,531.61h-2.59v-20.1h2.59Z" transform="translate(0 -3.7)"/><g id="g160"><path id="path162" class="cls-7" d="M1496.93,531.61v-20.1h2.83l6.44,10.17a56.58,56.58,0,0,1,3.61,6.53l.06,0c-.24-2.68-.3-5.13-.3-8.26v-8.41H1512v20.1h-2.63l-6.38-10.2a62.34,62.34,0,0,1-3.75-6.71l-.09,0c.15,2.54.21,4.95.21,8.29v8.59Z" transform="translate(0 -3.7)"/></g><g id="g164"><path id="path166" class="cls-7" d="M1535.79,511.51h2.59v9.69h.09c.54-.77,1.07-1.49,1.58-2.14l6.15-7.55h3.22l-7.28,8.53,7.84,11.57h-3.07l-6.62-9.87-1.91,2.21v7.66h-2.59Z" transform="translate(0 -3.7)"/></g><path id="path168" class="cls-7" d="M1573.78,531.61h-2.59v-20.1h2.59Z" transform="translate(0 -3.7)"/><g id="g170"><path id="path172" class="cls-7" d="M1597.52,531.61v-20.1h2.83l6.44,10.17a56.58,56.58,0,0,1,3.61,6.53l.06,0c-.24-2.68-.3-5.13-.3-8.26v-8.41h2.45v20.1H1610l-6.38-10.2a64.25,64.25,0,0,1-3.76-6.71l-.08,0c.14,2.54.2,4.95.2,8.29v8.59Z" transform="translate(0 -3.7)"/></g><g id="g174"><path id="path176" class="cls-7" d="M1651.67,530.71a18.61,18.61,0,0,1-6.17,1.11,9.44,9.44,0,0,1-10.32-10.14c0-6,4.15-10.38,10.89-10.38a12.41,12.41,0,0,1,5,.93l-.63,2.12a10.36,10.36,0,0,0-4.44-.87c-4.89,0-8.08,3-8.08,8.08s3.07,8.11,7.75,8.11a8.43,8.43,0,0,0,3.46-.54v-6h-4.09v-2.09h6.62Z" transform="translate(0 -3.7)"/></g></g></g></g></g></svg>