<?xml version="1.0" encoding="UTF-8"?>
<!-- Generator: Adobe Illustrator 25.0.0, SVG Export Plug-In . SVG Version: 6.00 Build 0)  -->
<svg version="1.1" id="svg2" xmlns="http://www.w3.org/2000/svg" xmlns:xlink="http://www.w3.org/1999/xlink" x="0px" y="0px" viewBox="0 0 1685.8 222" style="enable-background:new 0 0 1685.8 222;" xml:space="preserve">
<style type="text/css">
	.st0{fill:#003300;}
	.st1{fill:#FFFFFF;}
	.st2{clip-path:url(#SVGID_2_);}
	.st3{fill:#044A04;}
</style>
<g id="g28">
	<path id="path30" class="st0" d="M128.2,57.4l-34-47.8l2.7,58.6L41.2,49.6l36.6,45.8L21.9,113l56.6,15.5l-34.9,47.1L98.5,155   l-0.5,58.7l32.2-49l34,47.8l-2.7-58.6l55.6,18.6l-36.5-45.8l55.9-17.6l-56.6-15.5l34.9-47.1L159.9,67l0.5-58.6L128.2,57.4z"/>
</g>
<g id="g32">
	<path id="path34" class="st1" d="M128.9,84l7,20.4l21.6-0.4l-17.3,13l7,20.4L129.6,125l-17.3,13l6.3-20.7L100.9,105l21.6-0.4   L128.9,84z"/>
</g>
<g id="g10">
	<g id="g12">
		<g>
			<defs>
				<polyline id="SVGID_1_" points="251.4,286.8 251.4,-158 1685.8,-158 1685.8,286.8     "/>
			</defs>
			<clipPath id="SVGID_2_">
				<use xlink:href="#SVGID_1_" style="overflow:visible;"/>
			</clipPath>
			<g class="st2">
				<g id="g14">
					<g id="g20">
						<path id="path22" class="st0" d="M668.1,31.6c4.5,0.5,9.1,1.2,13.5,2.1c8.6,2.4,9.2,6.8,9.5,15.4c0.6,10.2,0.6,27.1,0.6,60.9        c0,54.2-0.9,75.1-1.5,82.4c-0.6,8.9-2.8,12.3-8.6,13.9c-4.3,1.2-7.1,1.2-15.7,2.4c-0.9,0.6-0.9,4.6,0,5.2        c12.6,0,26.5-0.9,41.5-0.9c19.7,0,55.4,1.2,76,1.2c13.9,0,17.2-1.2,18.8-3.7c5.5-8.6,14.2-40,15.7-49.5        c-0.3-1.2-4.3-2.2-5.2-1.2c-5.5,13.5-15.4,29.2-21.5,35.4c-6.2,6.5-10.8,8-16.9,8c-12,0.6-36,0-42.8-1.8        c-3.4-0.6-5.2-4-5.5-9.2c-0.6-10.2-0.9-50.5-0.6-79.4c0.3-27.7,0.3-58.5,0.6-64.6c0.3-8.3,0.9-12,7.7-14.2        c3.4-1.2,5.8-1.5,12.6-2.4c0.9-0.6,0.6-4.6,0-5.2c-7.7,0.3-20.3,0.9-39.1,0.9c-23.1,0-30.2-0.9-38.8-0.9        C667.8,26.7,667.5,31,668.1,31.6 M893.4,135.6c0,3.1,0.3,4,0,7.4c0,0.9-1.5,3.1-2.2,3.4c-12.3,5.5-48.3,14.5-55.4,19.1        c-1.8,3.4-4.6,12.6-4.6,16c0,11.7,4.3,22.2,10.8,28.3c4.6,4.5,10.8,7.1,17.2,7.1c5.2,0,18.5-4.9,32.3-15.4        c0,0,1.2-0.3,1.2,0.3c0.4,2,0.9,3.9,1.5,5.8c2.2,5.2,7.1,9.2,16.9,9.2c10.8,0,21.2-4,28.6-12.3c0.6-0.6,1.5-6.2,1.5-7.1        c-3,1-6.1,1.6-9.2,1.5c-8.3,0-10.2-8.6-10.2-13.5c0-12,0.6-32,0.6-46.8c0-9.8-1.5-22.8-6.8-31.4        c-6.4-10.2-17.5-16.9-32.6-16.9c-8,0-27.7,8.3-42.2,18.8c-1.2,1.2-5.8,13.9-5.8,15.7c0,1.5,4.6,5.5,5.8,4.9        c1.8-5.2,8.3-16.9,10.8-18.8c2.1-1.8,7.7-3.7,14.5-3.7c8.3,0,17.5,3.7,22.5,11.4C892.1,123.6,893.4,129.5,893.4,135.6         M893.1,153.8c0,5.2,0,26.5-0.3,36c0,3.1-0.9,5.2-2.4,6.5c-2.4,1.9-6.5,2.4-9.5,2.4c-10.8,0-20.3-9.2-20.3-23.7        c0-3.7,1.5-10.1,2.4-11.1c2.8-3.1,18.5-7.7,29.2-11.4C892.5,152.5,893.1,153.5,893.1,153.8 M958.6,164.2        c-0.9-0.9-4.9,0-5.5,1.2c0.9,9.2,4.3,39.4,7.3,44.3c5.5,3.7,24.6,8.9,42.8,8.9c43.1,0,68.3-23.7,68.3-56.6        c0-21.2-12.3-35.1-31.4-48c-11.7-7.7-21.2-12.6-33.2-21.8c-12.3-9.2-19.1-19.4-19.1-33.5c0-16.9,11.4-30.2,30.5-30.2        c9.5,0,16.6,1.5,23.7,6.5c8.3,5.2,11.7,14.2,13.5,33.5c0.6,0.6,4.6,0.3,5.2-0.6c1.2-17.8,3.4-30.2,5.2-41.5        c-11.7-0.6-24.3-4.6-44.6-4.6c-33.5,0-61.2,19.1-61.2,52.9c0,27.1,15.7,41.9,45.6,61.2c24.9,16.3,34.8,27.1,34.8,45.5        c0,18.8-12,29.9-28.9,29.9c-11.4,0-21.2-2.2-29.2-7.7C971.2,195.9,964.4,185.8,958.6,164.2 M1153.7,135.6c0,3.1,0.3,4,0,7.4        c0,0.9-1.5,3.1-2.2,3.4c-12.3,5.5-48.3,14.5-55.4,19.1c-1.8,3.4-4.6,12.6-4.6,16c0,11.7,4.3,22.2,10.8,28.3        c4.6,4.5,10.8,7.1,17.2,7.1c5.2,0,18.5-4.9,32.3-15.4c0,0,1.2-0.3,1.2,0.3c0.4,2,0.9,3.9,1.5,5.8c2.2,5.2,7.1,9.2,16.9,9.2        c10.8,0,21.2-4,28.6-12.3c0.6-0.6,1.5-6.2,1.5-7.1c-3,1-6.1,1.6-9.2,1.5c-8.3,0-10.2-8.6-10.2-13.5c0-12,0.6-32,0.6-46.8        c0-9.8-1.5-22.8-6.8-31.4c-6.5-10.2-17.5-16.9-32.7-16.9c-8,0-27.7,8.3-42.2,18.8c-1.2,1.2-5.8,13.9-5.8,15.7        c0,1.5,4.6,5.5,5.8,4.9c1.9-5.2,8.3-16.9,10.8-18.8c2.2-1.8,7.7-3.7,14.5-3.7c8.3,0,17.5,3.7,22.5,11.4        C1152.4,123.6,1153.6,129.5,1153.7,135.6 M1153.3,153.8c0,5.2,0,26.5-0.3,36c0,3.1-0.9,5.2-2.4,6.5c-2.4,1.9-6.5,2.4-9.5,2.4        c-10.8,0-20.3-9.2-20.3-23.7c0-3.7,1.5-10.1,2.4-11.1c2.8-3.1,18.5-7.7,29.2-11.4C1152.7,152.6,1153.3,153.5,1153.3,153.8         M1206.2,214.1c4.6,0,14.8-0.9,30.8-0.9s29.2,0.9,32.9,0.9c0.6-0.9,0.9-4.3,0.6-5.2c-3.7-0.6-6.8-0.9-10.2-2.4        c-4.6-2.2-5.5-4-6.1-13.5c-0.6-12-0.6-35.1-0.6-87.4c0-27.1,0-51.1,0.3-66.5c0-19.4,0.9-29.5,2.4-32.9c0-0.6-0.9-1.5-1.5-1.9        c-10.5,4.9-33.5,10.5-48.3,11.4c-0.6,0.9-0.9,4,0,4.6c5.2,0.6,8.6,1.5,11.1,2.8c3.4,1.2,3.7,4.9,4,8.3        c1.2,12.6,1.2,48.3,1.2,79.4c0,28.9-0.3,68.6-0.6,82.2c-0.3,9.5-1.8,11.7-5.2,13.2s-5.5,1.8-10.8,2.8        C1205.6,209.8,1205.6,213.2,1206.2,214.1 M1278.9,214.2c4.6,0,14.8-0.9,30.8-0.9s29.2,0.9,32.9,0.9c0.6-0.9,0.9-4.3,0.6-5.2        c-3.7-0.6-6.8-0.9-10.2-2.4c-4.6-2.2-5.5-4-6.2-13.5c-0.6-12-0.6-35.1-0.6-87.4c0-27.1,0-51.1,0.3-66.5        c0-19.4,0.9-29.5,2.4-32.9c0-0.6-0.9-1.5-1.5-1.9c-10.5,4.9-33.6,10.5-48.3,11.4c-0.6,0.9-0.9,4,0,4.6        c5.2,0.6,8.6,1.5,11.1,2.8c3.4,1.2,3.7,4.9,4,8.3c1.2,12.6,1.2,48.3,1.2,79.4c0,28.9-0.3,68.6-0.6,82.2        c-0.3,9.5-1.8,11.7-5.2,13.2s-5.5,1.8-10.8,2.8C1278.3,209.9,1278.3,213.3,1278.9,214.2 M1399.8,48.3c0-2.2-0.6-6.8-2.4-9.2        c-3.3-2.2-7.1-3.4-11.1-3.4c-5.2,0-13.5,2.8-16.3,5.2c-1.8,2.4-2.4,7.7-1.8,11.4c0.3,4,2.4,10.2,7.3,12        c3.7,1.5,14.8-0.3,17.2-1.5C1397,59.3,1399.6,54,1399.8,48.3 M1416.1,209c-3.4-0.4-6.8-1.1-10.2-2.2c-4-1.5-5.8-3.7-6.2-12        c-0.3-13.5-0.3-37.2-0.3-53.2c0-17.5,0.6-44.3,0.6-52c-13.5,6.5-37.2,10.2-44.9,10.5c-0.3,1.7-0.3,3.5,0,5.2        c4.9,1.5,7.7,2.4,10.5,5.2c1.8,2.4,2.2,5.5,2.2,8c0.6,4.6,0.6,17.9,0.6,29.2c0,15.4-0.3,39.1-0.6,46.2        c-0.3,7.7-1.5,11.4-5.9,12.9c-2.8,1.2-6.8,1.9-10.5,2.2c-0.6,0.3-0.6,4.6,0,5.2c6.5,0,17.2-0.9,32.7-0.9        c12,0,23.4,0.9,30.8,0.9C1416.2,213.6,1416.2,209.9,1416.1,209 M1489.7,135.8c0,3.1,0.3,4,0,7.4c0,0.9-1.5,3.1-2.2,3.4        c-12.3,5.5-48.3,14.5-55.4,19.1c-1.8,3.4-4.6,12.6-4.6,16c0,11.7,4.3,22.2,10.8,28.3c4.6,4.5,10.8,7.1,17.2,7.1        c5.2,0,18.5-4.9,32.3-15.4c0,0,1.2-0.3,1.2,0.3c0.4,2,0.9,3.9,1.5,5.8c2.1,5.2,7.1,9.2,16.9,9.2c10.8,0,21.2-4,28.6-12.3        c0.6-0.6,1.5-6.2,1.5-7.1c-3,1-6.1,1.6-9.2,1.5c-8.3,0-10.2-8.6-10.2-13.5c0-12,0.6-32,0.6-46.8c0-9.8-1.5-22.8-6.8-31.4        c-6.5-10.2-17.5-16.9-32.7-16.9c-8,0-27.7,8.3-42.2,18.8c-1.2,1.2-5.8,13.9-5.8,15.7c0,1.5,4.6,5.5,5.8,4.9        c1.8-5.2,8.3-16.9,10.8-18.8c2.2-1.8,7.7-3.7,14.5-3.7c8.3,0,17.5,3.7,22.5,11.4C1488.4,123.8,1489.7,129.6,1489.7,135.8         M1489.4,154c0,5.2,0,26.5-0.3,36c0,3.1-0.9,5.2-2.4,6.5c-2.4,1.9-6.5,2.4-9.5,2.4c-10.8,0-20.3-9.2-20.3-23.7        c0-3.7,1.5-10.1,2.4-11.1c2.8-3.1,18.5-7.7,29.2-11.4C1488.7,152.7,1489.4,153.7,1489.4,154 M1544.8,209        c-0.6,1.2-0.6,4.3,0,5.2c6.1-0.3,11.4-0.9,30.8-0.9c14.2,0,24.3,0.6,33.5,0.9c0.3-0.9,0.6-4.6,0.3-5.2        c-3.5-0.3-6.9-1.1-10.2-2.2c-4-0.9-6.2-2.8-6.8-12.3c-0.6-12.9-0.6-52.9-0.6-72.3c0-3.4,1.2-5.5,2.8-6.8        c5.3-3.9,11.6-6,18.2-6.2c6.5,0,10.8,1.2,14.8,4.3c5.2,4,7.7,10.5,8.9,16.3c2.4,12,1.9,54.8,1.2,66.5        c-0.6,6.5-1.5,9.5-6.5,10.8c-3,0.9-6.1,1.5-9.2,1.8c-0.3,0.3-0.6,4.6,0,5.2c8.9-0.3,16.9-0.9,33.5-0.9        c18.2,0,24.3,0.9,28.9,0.9c0.9-0.9,1.2-4.3,1.2-5.2c-4.7-0.5-9.2-2.1-13.2-4.6c-1.8-1.3-2.8-3.3-2.8-5.5        c-0.6-9.8-0.3-42.4-0.3-56.9c0-14.2-1.5-26.1-7.1-35.1c-6.2-10.5-15.4-16.3-28.9-16.3c-9.5,0-24,6.5-40.3,19.4        c-0.3,0.6-1.2,0.3-1.2-0.6c0.3-5.2,0.6-12.3,1.2-17.9c-0.1-0.7-0.4-1.3-0.9-1.8c-9.5,5.5-28.3,10.8-44.6,12.6        c-0.6,0.6-0.9,4-0.9,4.6c12.3,4,12.9,8.3,13.5,11.4c0.3,2.8,0.6,19.7,0.6,29.8c0,12.3,0,36.9-0.6,46.5        c-0.3,7.7-2.4,11.4-6.1,12.6C1551,208.1,1547.9,208.7,1544.8,209"/>
					</g>
					<g id="g24">
						<path id="path26" class="st3" d="M295.4,209.2c-0.9,0.9-0.9,3.7,0,4.9c8,0.3,26.8-0.9,43.7-0.9c12,0,29.5,0.9,40.3,0.9        c0.6-0.6,0.9-4,0.6-4.9c-7.1-0.6-12.3-0.9-16.9-2.4c-6.5-1.8-10.2-3.7-10.8-20.9c-0.9-16.3-1.2-104.6-1.2-148.3        c0-0.9,0.6-2.4,1.5-2.8c6.5-0.3,52.9-0.6,64.3,0c1.6,0.5,2.7,2,2.8,3.7c0.3,10.8,0.3,22.8,0.3,101.9c0,7.7-0.3,45.2-0.6,52.6        c-0.3,9.2-1.5,12.9-6.5,14.5c-2.8,0.9-5.8,1.2-10.5,1.8c-0.6,1.2-0.9,3.7,0,4.9c5.2,0,16.3-0.9,26.8-0.9        c12.6,0,27.1,0.6,30.8,0.6c0.3-0.6,0.9-3.7,0-4.6c-3.4-0.4-6.8-1-10.2-1.8c-5.8-1.5-7.7-4.3-8-13.9c-0.6-8.3-0.9-50.5-0.9-72        c0-1.8,1.5-4.9,4-7.1c6.4-5.5,14.6-8.4,23.1-8.3c19.1,0,26.5,13.2,28.3,22.2c2.8,14.2,1.9,45.5,1.5,61.9        c-0.3,13.5-1.5,14.8-5.2,16.6c-2.2,0.9-6.8,1.5-12,2.4c-0.6,0.9-0.9,4.3,0,4.9c4.3-0.3,17.2-0.6,27.4-0.9        c13.5-0.3,25.8,0.9,29.9,0.9c0.6-0.3,1.5-4,1.2-4.9c-8.6-0.9-12.9-1.8-16.9-4.9c-2.2-1.8-1.8-4.6-1.8-5.5        c-0.3-13.5-0.6-44.6-0.6-60.3c0-30.5-12.6-47.1-35.4-47.1c-11.7,0-25.8,6.2-42.2,18.8c-0.6,0.3-1.2,0-1.2-0.3V33.4        c0.3-24.3,0.6-29.2,0.6-30.5c0-0.8-0.7-1.5-1.5-1.5c-0.9,0-8.6,3.7-19.1,4c-0.6,0-1.5,1.5-1.5,2.2v16.3c0,0.7-0.6,1.2-1.2,1.2        l-136,0.3c-7.4,0-17.2-1.8-22.8-4.3c-0.9-0.2-1.9-0.2-2.8,0c-0.6,12.6-3.1,32.7-5.2,45.2c0.3,0.9,4.3,1.8,5.2,1.2        c4.3-11.7,8.3-20,12.9-26.1c2.4-3.4,5.9-6.8,12-6.8c6.8-0.6,37.9-0.6,43.4-0.3c1,0.3,1.7,1.1,1.8,2.1        c0,49.2-0.3,134.2-0.6,147.7c-0.9,14.8-2.1,20.9-11.1,22.2C311.1,207.3,305.2,208.2,295.4,209.2 M651.8,186.7        c-11.1,10.5-21.9,12.9-33.6,12.9c-12.9,0-24.6-4.3-33.8-15.7c-6.8-8.3-11.1-21.9-11.4-33.9c0-1.5,0.6-3.4,1.8-3.4        c23.7-0.6,66.5-3.1,78.5-7.1c0.9-0.3,1.5-3.1,1.2-4c-2.8-0.3-3.4-1.5-3.7-2.4c-2.4-14.8-12-41.9-40.6-41.9        c-8,0-23.1,4.3-31.4,9.8c-16.3,10.2-26.5,28.9-26.5,53.9c0,16.6,4.3,34.5,16,47.1c8.3,9.2,20.6,14.8,36,14.8        c15.1,0,33.2-8,48-24c0.6-1.7,0.8-3.5,0.6-5.2C653,187.1,652.1,186.8,651.8,186.7 M600.4,99.4c17.8,0,26.5,19.4,28.3,35.1        c0,1.2-1.2,2.2-1.8,2.4c-6.5,1.5-43.7,2.8-52,2.2c-0.3,0-0.9-0.9-0.9-1.8C575.1,112.6,586.5,99.4,600.4,99.4"/>
					</g>
				</g>
			</g>
		</g>
	</g>
	<g id="g36">
		<g>
			<defs>
				<rect id="SVGID_3_" x="-120.2" y="-479.7" width="2176.9" height="1088.4"/>
			</defs>
			<clipPath id="SVGID_4_">
				<use xlink:href="#SVGID_3_" style="overflow:visible;"/>
			</clipPath>
		</g>
	</g>
</g>
</svg>